<?xml version="1.0" encoding="UTF-8" standalone="no"?>
<!DOCTYPE svg PUBLIC "-//W3C//DTD SVG 1.1//EN" "http://www.w3.org/Graphics/SVG/1.1/DTD/svg11.dtd">
<svg width="100%" height="100%" viewBox="0 0 158 25" version="1.1" xmlns="http://www.w3.org/2000/svg" xmlns:xlink="http://www.w3.org/1999/xlink" xml:space="preserve" xmlns:serif="http://www.serif.com/" style="fill-rule:evenodd;clip-rule:evenodd;stroke-linejoin:round;stroke-miterlimit:2;">
    <g transform="matrix(1,0,0,1,-550,-177)">
        <g transform="matrix(1,0,0,1.06667,0,-12.1333)">
            <ellipse cx="629" cy="189.5" rx="8" ry="7.5"/>
        </g>
        <g transform="matrix(1.01667,0,0,1,-9.35,0)">
            <path d="M621,190C615.153,188.04 603,177 603,177C603,177 584.746,186.411 550.18,190C584.889,192.507 603,202 603,202C603,202 615.154,191.991 621,190Z"/>
        </g>
        <g transform="matrix(-1.01667,0,0,1,1267.35,0)">
            <path d="M621,190C615.153,188.04 603,177 603,177C603,177 584.746,186.411 550.18,190C584.889,192.507 603,202 603,202C603,202 615.154,191.991 621,190Z"/>
        </g>
    </g>
</svg>
